<mxfile host="65bd71144e">
    <diagram id="L-z09f0RwRDEzjOUJbhD" name="Page-1">
        <mxGraphModel dx="960" dy="626" grid="1" gridSize="10" guides="1" tooltips="1" connect="1" arrows="1" fold="1" page="1" pageScale="1" pageWidth="850" pageHeight="1100" math="0" shadow="0">
            <root>
                <mxCell id="0"/>
                <mxCell id="1" parent="0"/>
                <mxCell id="5" value="Lugar" style="swimlane;whiteSpace=wrap;html=1;" vertex="1" parent="1">
                    <mxGeometry x="590" y="243.33" width="130" height="120" as="geometry"/>
                </mxCell>
                <mxCell id="6" value="Institución: 1 Texto&lt;br/&gt;Ciudad: 1 Texto&lt;br/&gt;País: 1 Texto&lt;br/&gt;&lt;br&gt;" style="text;html=1;align=center;verticalAlign=middle;resizable=0;points=[];autosize=1;strokeColor=none;fillColor=none;" vertex="1" parent="5">
                    <mxGeometry x="5" y="34.99999999999997" width="120" height="70" as="geometry"/>
                </mxCell>
                <mxCell id="17" style="edgeStyle=none;html=1;exitX=1;exitY=0.5;exitDx=0;exitDy=0;entryX=0.012;entryY=0.787;entryDx=0;entryDy=0;entryPerimeter=0;" edge="1" parent="1" source="8" target="6">
                    <mxGeometry relative="1" as="geometry"/>
                </mxCell>
                <mxCell id="8" value="Cuadro" style="swimlane;whiteSpace=wrap;html=1;" vertex="1" parent="1">
                    <mxGeometry x="90" y="233.33" width="310" height="200" as="geometry"/>
                </mxCell>
                <mxCell id="9" value="Título: 0..* Texto Lugar&lt;br/&gt;Cronología: 1 Tiempo&lt;br/&gt;Técnica: 1 enum Técnica&lt;br/&gt;Sub-técnica: 1 enum Sub-Técnica&lt;br/&gt;Material del soporte: 1 enum Material&lt;br/&gt;Autor: 1 Texto&lt;br/&gt;Estado de conservación: 1 enum Estado de Conservación&lt;br&gt;" style="text;html=1;align=center;verticalAlign=middle;resizable=0;points=[];autosize=1;strokeColor=none;fillColor=none;" vertex="1" parent="8">
                    <mxGeometry x="-20" y="70" width="330" height="110" as="geometry"/>
                </mxCell>
                <mxCell id="10" value="" style="endArrow=none;html=1;" edge="1" parent="1">
                    <mxGeometry width="50" height="50" relative="1" as="geometry">
                        <mxPoint x="260" y="563.33" as="sourcePoint"/>
                        <mxPoint x="260" y="433.33" as="targetPoint"/>
                    </mxGeometry>
                </mxCell>
                <mxCell id="11" value="" style="endArrow=none;html=1;" edge="1" parent="1">
                    <mxGeometry width="50" height="50" relative="1" as="geometry">
                        <mxPoint x="260" y="563.33" as="sourcePoint"/>
                        <mxPoint x="500" y="563.33" as="targetPoint"/>
                    </mxGeometry>
                </mxCell>
                <mxCell id="12" value="" style="endArrow=none;html=1;" edge="1" parent="1">
                    <mxGeometry width="50" height="50" relative="1" as="geometry">
                        <mxPoint x="500" y="563.33" as="sourcePoint"/>
                        <mxPoint x="500" y="403.33" as="targetPoint"/>
                    </mxGeometry>
                </mxCell>
                <mxCell id="13" value="" style="endArrow=none;html=1;exitX=1.001;exitY=0.904;exitDx=0;exitDy=0;exitPerimeter=0;" edge="1" parent="1" source="9">
                    <mxGeometry width="50" height="50" relative="1" as="geometry">
                        <mxPoint x="450" y="453.33" as="sourcePoint"/>
                        <mxPoint x="500" y="403.33" as="targetPoint"/>
                    </mxGeometry>
                </mxCell>
                <mxCell id="14" value="Es replica de&lt;br&gt;" style="text;html=1;align=center;verticalAlign=middle;resizable=0;points=[];autosize=1;strokeColor=none;fillColor=none;" vertex="1" parent="1">
                    <mxGeometry x="480" y="565" width="90" height="30" as="geometry"/>
                </mxCell>
                <mxCell id="15" value="replica" style="text;html=1;align=center;verticalAlign=middle;resizable=0;points=[];autosize=1;strokeColor=none;fillColor=none;" vertex="1" parent="1">
                    <mxGeometry x="180" y="438.33" width="60" height="30" as="geometry"/>
                </mxCell>
                <mxCell id="16" value="Original" style="text;html=1;align=center;verticalAlign=middle;resizable=0;points=[];autosize=1;strokeColor=none;fillColor=none;" vertex="1" parent="1">
                    <mxGeometry x="490" y="398.33" width="60" height="30" as="geometry"/>
                </mxCell>
                <mxCell id="18" value="Se localiza en" style="text;html=1;align=center;verticalAlign=middle;resizable=0;points=[];autosize=1;strokeColor=none;fillColor=none;" vertex="1" parent="1">
                    <mxGeometry x="450" y="298.33" width="100" height="30" as="geometry"/>
                </mxCell>
                <mxCell id="19" value="Ubiccion&lt;br&gt;" style="text;html=1;align=center;verticalAlign=middle;resizable=0;points=[];autosize=1;strokeColor=none;fillColor=none;" vertex="1" parent="1">
                    <mxGeometry x="530" y="333.33" width="70" height="30" as="geometry"/>
                </mxCell>
                <mxCell id="21" value="0..*&lt;br&gt;" style="text;html=1;align=center;verticalAlign=middle;resizable=0;points=[];autosize=1;strokeColor=none;fillColor=none;" vertex="1" parent="1">
                    <mxGeometry x="400" y="305" width="40" height="30" as="geometry"/>
                </mxCell>
                <mxCell id="22" value="1&lt;br&gt;" style="text;html=1;align=center;verticalAlign=middle;resizable=0;points=[];autosize=1;strokeColor=none;fillColor=none;" vertex="1" parent="1">
                    <mxGeometry x="555" y="305" width="30" height="30" as="geometry"/>
                </mxCell>
                <mxCell id="23" value="0...*&lt;br&gt;" style="text;html=1;align=center;verticalAlign=middle;resizable=0;points=[];autosize=1;strokeColor=none;fillColor=none;" vertex="1" parent="1">
                    <mxGeometry x="260" y="435" width="40" height="30" as="geometry"/>
                </mxCell>
                <mxCell id="24" value="0.1&lt;br&gt;" style="text;html=1;align=center;verticalAlign=middle;resizable=0;points=[];autosize=1;strokeColor=none;fillColor=none;" vertex="1" parent="1">
                    <mxGeometry x="410" y="405" width="40" height="30" as="geometry"/>
                </mxCell>
            </root>
        </mxGraphModel>
    </diagram>
</mxfile>